<svg xmlns="http://www.w3.org/2000/svg" viewBox="0 0 90 70" width="90" height="70">
	<style>
		tspan { white-space:pre }
		.shp0 { fill: #4368e8 } 
	</style>
	<g id="Layer">
		<g id="Layer">
			<path id="Layer" fill-rule="evenodd" class="shp0" d="M12 0L34 0C38.3 0 42.37 1.99 45 5.09C47.63 1.99 51.7 0 56 0L78 0C79.57 0 81 1.43 81 3L81 8L87 8C88.57 8 90 9.43 90 11L90 61C90 62.57 88.57 64 87 64L56 64C51.65 64 49.17 65.37 47.69 68.34C47.19 69.34 46.11 70.01 45 70.01C43.89 70.01 42.81 69.34 42.31 68.34C40.83 65.37 38.35 64 34 64L3 64C1.43 64 0 62.57 0 61L0 11C-0.01 9.53 1.22 8.15 2.69 8C2.79 7.99 2.9 7.99 3 8L9 8L9 3C8.99 1.53 10.22 0.15 11.69 0C11.79 -0.01 11.9 -0.01 12 0ZM15 49L30 49C34.67 49 38.83 50.88 42 53.97L42 13C42 9.81 37.93 6 34 6L15 6L15 49ZM48 13L48 53.97C51.17 50.88 55.33 49 60 49L75 49L75 6L56 6C52.07 6 48 9.81 48 13ZM6 58L34 58C35.51 58 36.96 58.19 38.34 58.53C36.22 56.25 33.34 55 30 55L12 55C10.43 55 9 53.57 9 52L9 14L6 14L6 58ZM81 52C81 53.57 79.57 55 78 55L60 55C56.66 55 53.78 56.25 51.66 58.53C53.04 58.19 54.49 58 56 58L84 58L84 14L81 14L81 52Z" />
		</g>
	</g>
</svg>