<svg xmlns="http://www.w3.org/2000/svg" viewBox="0 0 96 96" width="96" height="96">
	<style>
		tspan { white-space:pre }
		.shp0 { fill: #4068e8 } 
	</style>
	<g id="Layer">
		<g id="Layer">
			<g id="Layer">
				<path id="Layer" class="shp0" d="M54.7 40.6L45.2 50.9L40.6 46C39.5 44.8 37.6 44.7 36.4 45.8C35.2 46.9 35.1 48.8 36.2 50L43 57.3C43.6 57.9 44.4 58.3 45.2 58.3C46 58.3 46.8 58 47.4 57.3L59.1 44.7C60.2 43.5 60.2 41.6 58.9 40.5C57.7 39.4 55.8 39.4 54.7 40.6Z" />
				<path id="Layer" fill-rule="evenodd" class="shp0" d="M95.6 41.4L95.6 54.5C95.6 57.8 92.9 60.5 89.6 60.5L84.9 60.5C84.4 62.1 83.7 63.6 83 65.1L86.3 68.6C87.5 69.7 88.1 71.2 88.1 72.8C88.1 74.4 87.4 75.9 86.3 77L77 86.3C74.7 88.6 70.8 88.6 68.5 86.3L65.2 83C63.7 83.7 62.2 84.4 60.6 84.9L60.6 89.6C60.6 92.9 57.9 95.6 54.6 95.6L41.5 95.6C38.2 95.6 35.5 92.9 35.5 89.6L35.5 84.9C33.9 84.4 32.4 83.7 30.9 83L27.6 86.3C25.2 88.6 21.4 88.6 19.1 86.3L9.8 77C7.5 74.6 7.5 70.8 9.8 68.5L13.1 65.2C12.4 63.7 11.7 62.2 11.2 60.6L6.5 60.6C3.2 60.6 0.5 57.9 0.5 54.6L0.5 41.5C0.5 38.2 3.2 35.5 6.5 35.5L11.1 35.5C11.6 33.9 12.3 32.4 13 30.9L9.7 27.6C7.4 25.2 7.4 21.4 9.7 19.1L19 9.8C21.3 7.5 25.2 7.5 27.5 9.8L30.8 13.1C32.3 12.4 33.8 11.7 35.4 11.2L35.4 6.5C35.4 3.2 38.1 0.5 41.4 0.5L54.5 0.5C57.8 0.5 60.5 3.2 60.5 6.5L60.5 11.1C62.1 11.6 63.6 12.3 65.1 13L68.4 9.8C70.8 7.5 74.6 7.5 76.9 9.8L86.2 19.1C87.4 20.2 88 21.7 88 23.3C88 24.9 87.3 26.4 86.2 27.5L82.9 30.8C83.6 32.3 84.3 33.8 84.8 35.4L89.5 35.4C92.8 35.4 95.5 38.1 95.6 41.4ZM89.6 41.1L82.7 41.1C81.3 41.1 80.2 40.2 79.8 38.9C79.1 36.3 78 33.8 76.7 31.5C76.1 30.3 76.3 28.8 77.2 27.9L82 23.1L72.7 13.8L67.8 18.7C66.8 19.7 65.4 19.9 64.2 19.2C61.9 17.9 59.3 16.8 56.7 16.1C55.4 15.7 54.5 14.5 54.5 13.2L54.5 6.3L41.3 6.3L41.3 13.2C41.3 14.6 40.4 15.7 39.1 16.1C36.5 16.8 34 17.9 31.7 19.2C30.5 19.8 29 19.6 28.1 18.7L23.3 13.9L14 23.2L18.9 28.1C19.9 29.1 20.1 30.5 19.4 31.7C18.1 34.1 17 36.6 16.3 39.2C15.9 40.5 14.7 41.4 13.4 41.4L6.5 41.4L6.5 54.6L13.4 54.6C14.8 54.6 15.9 55.5 16.3 56.8C17 59.5 18 62 19.3 64.3C19.9 65.5 19.8 67 18.8 67.9L14 72.7L23.2 82L28.1 77.1C28.7 76.5 29.4 76.2 30.2 76.2C30.7 76.2 31.2 76.3 31.7 76.6C34.1 77.9 36.6 79 39.2 79.7C40.5 80.1 41.4 81.3 41.4 82.6L41.4 89.5L54.6 89.5L54.6 82.6C54.6 81.2 55.5 80.1 56.8 79.7C59.5 79 62 78 64.3 76.7C65.5 76.1 66.9 76.3 67.9 77.2L72.7 82L82 72.8L77.1 67.9C76.1 66.9 75.9 65.5 76.6 64.3C77.9 61.9 79 59.4 79.7 56.8C80.1 55.5 81.3 54.6 82.6 54.6L89.5 54.6L89.6 41.1Z" />
				<path id="Layer" fill-rule="evenodd" class="shp0" d="M72.6 48C72.6 61.6 61.6 72.6 48 72.6C34.4 72.6 23.4 61.6 23.4 48C23.4 34.4 34.4 23.4 48 23.4C61.6 23.4 72.6 34.4 72.6 48ZM66.6 48C66.6 37.7 58.2 29.4 48 29.4C37.8 29.4 29.4 37.7 29.4 48C29.4 58.2 37.7 66.6 48 66.6C58.3 66.6 66.6 58.3 66.6 48Z" />
			</g>
		</g>
	</g>
</svg>