<svg xmlns="http://www.w3.org/2000/svg" viewBox="0 0 356 384" width="356" height="384">
	<style>
		tspan { white-space:pre }
		.shp0 { fill: #4068e8 } 
	</style>
	<g id="Layer">
		<path id="Layer" fill-rule="evenodd" class="shp0" d="M355.23 210.17L355.23 252.96L284.75 252.96L284.75 383.5L266.75 383.5L266.75 252.96L89.25 252.96L89.25 383.5L71.25 383.5L71.25 252.96L0.77 252.96L0.77 210.17L15.65 210.17L15.65 0.5L340.35 0.5L340.35 210.17L355.23 210.17ZM33.65 210.17L322.35 210.17L322.35 18.5L33.65 18.5L33.65 210.17ZM337.23 228.17L18.77 228.17L18.77 234.96L337.23 234.96L337.23 228.17Z" />
		<path id="Layer" class="shp0" d="M74 68.5L268 68.5L268 86.5L74 86.5L74 68.5Z" />
		<path id="Layer" class="shp0" d="M74 109.5L273 109.5L273 127.5L74 127.5L74 109.5Z" />
		<path id="Layer" class="shp0" d="M74 143.5L283 143.5L283 161.5L74 161.5L74 143.5Z" />
	</g>
</svg>